<svg xmlns="http://www.w3.org/2000/svg" width="40" height="40">
    <path fill-rule="evenodd" fill="#FFF" d="M17.769 20.198h-2.887C7.14 20.198.636 26.575.636 34.442c0 2.713 2.2 4.912 4.913 4.912h21.552c2.713 0 5.039-2.199 5.039-4.912 0-7.867-6.504-14.244-14.371-14.244zM16.363 4.489c3.628 0 6.57 2.941 6.57 7.091 0 3.106-2.942 6.047-6.57 6.047s-6.569-2.941-6.569-6.047c0-4.15 2.941-7.091 6.569-7.091zM37 8.999h-2.001V11A2 2 0 1 1 31 11V8.999h-2.001a2 2 0 1 1 0-3.999H31V2.999a2 2 0 0 1 3.999 0V5H37a2 2 0 0 1 0 3.999z"/>
</svg>
