<svg xmlns="http://www.w3.org/2000/svg" width="33" height="33">
    <path fill-rule="evenodd" fill="#037DD6" d="M6 0h19.999a6 6 0 0 1 6 6v19.999a6 6 0 0 1-6 6H6a6 6 0 0 1-6-6V6a6 6 0 0 1 6-6z"/>
    <path stroke="#FFF" stroke-width="2" fill="none" d="M11 9.999h5.999a3.001 3.001 0 0 1 3.001 3V23c0 1.656-1.344 3-3.001 3H11a3.001 3.001 0 0 1-3.001-3V12.999c0-1.656 1.344-3 3.001-3z"/>
    <path stroke="#FFF" stroke-width="2" fill="none" d="M11.999 8.999c0-1.656 1.344-3 3.001-3h5.999a3.001 3.001 0 0 1 3.001 3V19c0 1.656-1.344 3-3.001 3"/>
    <path stroke="#FFF" stroke-linecap="round" stroke-linejoin="round" fill="none" d="M10.999 14.999H16V16h-5.001v-1.001zM10.999 18.999H16V20h-5.001v-1.001z"/>
</svg>
