<svg width="44" height="44" viewBox="0 0 44 44" fill="none" xmlns="http://www.w3.org/2000/svg">
<circle cx="22" cy="22" r="22" fill="#F3F3F3"/>
<mask id="mask0_88_2459" style="mask-type:alpha" maskUnits="userSpaceOnUse" x="0" y="0" width="44" height="44">
<circle cx="22" cy="22" r="22" fill="#D9D9D9"/>
</mask>
<g mask="url(#mask0_88_2459)">
<path d="M21.9313 23.9855C25.4832 23.9855 28.3625 21.0819 28.3625 17.5001C28.3625 13.9183 25.4832 11.0146 21.9313 11.0146C18.3794 11.0146 15.5 13.9183 15.5 17.5001C15.5 21.0819 18.3794 23.9855 21.9313 23.9855Z" fill="#ACACAC"/>
<path d="M22.8286 26.6367H21.1716C13.8971 26.6367 8 32.5834 8 39.9192C8 42.4492 10.0338 44.5001 12.5427 44.5001H31.4573C33.9661 44.5001 36 42.4492 36 39.9192C36 32.5834 30.1029 26.6367 22.8286 26.6367Z" fill="#ACACAC"/>
</g>
</svg>
