<svg width="28" height="28" viewBox="0 0 28 28" fill="none" xmlns="http://www.w3.org/2000/svg">
<circle cx="14" cy="14" r="14" fill="#F3F3F3"/>
<mask id="mask0_138_649" style="mask-type:alpha" maskUnits="userSpaceOnUse" x="0" y="0" width="28" height="28">
<circle cx="14" cy="14" r="14" fill="#D9D9D9"/>
</mask>
<g mask="url(#mask0_138_649)">
<path d="M13.9563 15.2634C16.2166 15.2634 18.0489 13.4157 18.0489 11.1364C18.0489 8.85703 16.2166 7.00928 13.9563 7.00928C11.696 7.00928 9.86364 8.85703 9.86364 11.1364C9.86364 13.4157 11.696 15.2634 13.9563 15.2634Z" fill="#ACACAC"/>
<path d="M14.5273 16.9506H13.4728C8.84362 16.9506 5.09091 20.7349 5.09091 25.4031C5.09091 27.0131 6.38512 28.3182 7.9817 28.3182H20.0183C21.6148 28.3182 22.9091 27.0131 22.9091 25.4031C22.9091 20.7349 19.1564 16.9506 14.5273 16.9506Z" fill="#ACACAC"/>
</g>
<circle cx="24" cy="24" r="4" fill="#FA375A"/>
</svg>
