<svg width="28" height="28" viewBox="0 0 28 28" fill="none" xmlns="http://www.w3.org/2000/svg">
<g clip-path="url(#clip0_138_843)">
<path d="M28 9.06926C28 7.58415 26.8215 6.38009 25.3679 6.38009H3.50998C2.60319 6.38009 1.72527 5.48312 1.72527 4.58615C1.72527 3.68918 2.60319 2.79221 3.50998 2.79221H24.3627C24.8466 2.79221 25.2406 3.19472 25.2406 3.68918V4.58615H25.2576C25.8757 4.58615 26.4615 4.71974 26.9947 4.95569V3.68918C26.9947 2.20406 25.8162 1 24.3627 1H4.41676C0 1 0 4.58615 0 4.58615V22.9558C0 25.1106 2.30772 27 4.41676 27H25.3679C26.8215 27 28 25.7959 28 24.3108V19.8277H21.858C20.4044 19.8277 19.2259 18.6236 19.2259 17.1385C19.2259 15.6534 20.4044 14.4494 21.858 14.4494H28V9.06926Z" fill="#333333"/>
<path d="M20.98 17.1385C20.98 18.1274 21.7646 18.9325 22.7359 18.9325C23.7072 18.9325 24.49 18.1292 24.49 17.1385C24.49 16.1479 23.7055 15.3463 22.7359 15.3463C21.7663 15.3463 20.98 16.1496 20.98 17.1385Z" fill="#333333"/>
<path d="M23.6936 3.68921H4.38789V5.48315H23.6936V3.68921Z" fill="#333333"/>
</g>
<defs>
<clipPath id="clip0_138_843">
<rect width="28" height="26" fill="white" transform="translate(0 1)"/>
</clipPath>
</defs>
</svg>
